<svg xmlns="http://www.w3.org/2000/svg" width="100" height="100" viewBox="0 0 100 100"><title>Artboard 62</title><path d="M50,0A50,50,0,0,0,7.08,75.66h0a.55.55,0,0,0,.47.16c.12,0,.2-.29.2-.46a3.08,3.08,0,0,0-.14-.54,92.26,92.26,0,0,1-1.76-9.56A41,41,0,0,1,7.63,49.15C12.22,35,21.52,25.4,35.4,20.24a42.93,42.93,0,0,1,14.16-2.48,3.26,3.26,0,0,1,3.57,3.18c0,1.87-1.43,3.07-3.54,3.19a53.56,53.56,0,0,0-6.7.69,36.22,36.22,0,0,0-20.27,11c-8.68,9.25-12,20.25-10,32.74A36.19,36.19,0,0,0,22.81,88.5,37.26,37.26,0,0,0,49.35,100H50a49.8,49.8,0,0,0,23.39-5.8c-7.67,0-15.64,0-23.31,0a35,35,0,0,1-5.87-.54,32.12,32.12,0,0,1-26-36.77,32.16,32.16,0,0,1,29.31-27,31.84,31.84,0,0,1,9,.57,3.12,3.12,0,0,1,2.57,3.65,3.27,3.27,0,0,1-4,2.51,25.35,25.35,0,0,0-3.34-.48,26.37,26.37,0,0,0-12.08,2.1A25.83,25.83,0,0,0,24.23,64.84a25.93,25.93,0,0,0,25.68,23q14.56,0,29.13,0c2.83,0,3.5.06,4.74-1a52.36,52.36,0,0,0,4.49-4.69c-12.59,0-26.29,0-38.88,0A18.12,18.12,0,0,1,40.75,80,20.2,20.2,0,1,1,60,44.52a3.13,3.13,0,0,1,1.32,4.35A3.19,3.19,0,0,1,56.88,50a13.89,13.89,0,0,0-20.6,14.26A13.72,13.72,0,0,0,49.93,75.94c14,.14,28,0,42,0a1.76,1.76,0,0,0,1.17-.6A50,50,0,0,0,50,0Z" fill="#fff"/></svg>