<?xml version="1.0" encoding="UTF-8" standalone="no"?>
<!-- Created with Inkscape (http://www.inkscape.org/) -->

<svg
   width="1000"
   height="1000"
   viewBox="0 0 1000 1000"
   version="1.1"
   id="SVGRoot"
   sodipodi:docname="C:\Users\Danny\AppData\Local\Temp\ink_ext_XXXXXX.svgDI1FN1"
   inkscape:version="1.2 (dc2aedaf03, 2022-05-15)"
   xml:space="preserve"
   inkscape:export-filename="DevDaveLogo.svg"
   inkscape:export-xdpi="96"
   inkscape:export-ydpi="96"
   xmlns:inkscape="http://www.inkscape.org/namespaces/inkscape"
   xmlns:sodipodi="http://sodipodi.sourceforge.net/DTD/sodipodi-0.dtd"
   xmlns:xlink="http://www.w3.org/1999/xlink"
   xmlns="http://www.w3.org/2000/svg"
   xmlns:svg="http://www.w3.org/2000/svg"><sodipodi:namedview
     id="namedview1115"
     pagecolor="#ffffff"
     bordercolor="#000000"
     borderopacity="0.25"
     inkscape:showpageshadow="2"
     inkscape:pageopacity="0.0"
     inkscape:pagecheckerboard="0"
     inkscape:deskcolor="#d1d1d1"
     inkscape:document-units="px"
     showgrid="false"
     inkscape:zoom="0.25"
     inkscape:cx="1889.5"
     inkscape:cy="1889.5"
     inkscape:window-width="1920"
     inkscape:window-height="1009"
     inkscape:window-x="1912"
     inkscape:window-y="-8"
     inkscape:window-maximized="0"
     inkscape:current-layer="layer1" /><defs
     id="defs1110"><linearGradient
       inkscape:collect="always"
       id="linearGradient3752"><stop
         style="stop-color:#ffff00;stop-opacity:1;"
         offset="0"
         id="stop3750" /><stop
         style="stop-color:#ff596a;stop-opacity:1;"
         offset="0.46350548"
         id="stop3807" /><stop
         style="stop-color:#c7003e;stop-opacity:1;"
         offset="0.82651997"
         id="stop3748" /></linearGradient><linearGradient
       inkscape:collect="always"
       xlink:href="#linearGradient3752"
       id="linearGradient3762"
       x1="22.656311"
       y1="159.79681"
       x2="977.34369"
       y2="861.41638"
       gradientUnits="userSpaceOnUse" /></defs><g
     inkscape:label="logo"
     inkscape:groupmode="layer"
     id="layer1"><path
       style="mix-blend-mode:hard-light;fill:url(#linearGradient3762);fill-opacity:1;stroke:none;stroke-width:3.951;stroke-dasharray:none;stroke-opacity:1;paint-order:stroke markers fill"
       d="m 276.96283,929.80643 c -92.25819,-46.02228 -67.49205,-185.57031 34.80772,-196.12859 30.35787,-3.13324 61.56979,6.95052 82.16982,26.54685 48.48582,46.12347 284.16594,20.24643 315.67914,-34.66069 15.90181,-27.70651 51.70548,-89.14416 79.56375,-136.52812 27.85831,-47.38398 50.65145,-87.69171 50.65145,-89.5728 0,-4.10027 -42.36458,-78.56686 -49.50469,-87.0172 -5.99895,-7.09972 -18.58334,-28.98644 -35.2121,-61.24078 -71.79211,-139.2529 -58.82438,-132.35906 -248.97506,-132.35906 -174.43924,0 -174.43924,0 -188.05511,14.1748 -64.74376,67.40141 -173.63207,23.29674 -173.63207,-70.32886 0,-91.163491 109.35938,-136.176614 171.62072,-70.640323 11.60447,12.214893 11.60447,12.214893 223.23246,12.259783 211.62796,0.0448 211.62796,0.0448 235.95933,42.47344 75.47196,131.60644 179.88668,308.99783 188.81704,320.78348 13.32352,17.58327 16.52932,30.87078 9.96063,41.28603 -8.90057,14.11299 -42.1325,71.94834 -58.65813,102.08598 -159.5268,290.92805 -148.39369,281.47482 -332.79935,282.58449 -171.22682,1.03039 -171.22682,1.03039 -187.13699,16.60478 -29.27639,28.6586 -82.69893,37.53016 -118.48856,19.67679 z M 85.190439,704.75905 C 2.743164,666.33058 1.553805,551.87377 83.214919,514.6482 c 36.743721,-16.74979 89.352221,-6.98726 117.273441,21.76228 29.64577,30.52529 338.74447,20.75034 356.65625,-11.27889 32.67838,-58.4344 -35.56903,-104.95183 -85.90557,-58.5532 -52.07809,48.00391 -143.2034,28.02385 -165.79895,-36.35294 -37.96143,-108.15555 83.99628,-194.12035 166.09705,-117.07743 12.97553,12.17619 12.97553,12.17619 74.798,13.2636 70.96955,1.2483 54.58247,-12.86386 122.17552,105.21447 44.58206,77.88036 46.06993,56.43367 -10.74665,154.90356 -47.73606,82.73236 -47.73606,82.73236 -246.19936,82.73236 -198.46328,0 -198.46328,0 -210.06777,12.21489 -27.70328,29.16048 -80.86344,39.80206 -116.306441,23.28215 z"
       id="path494"
       inkscape:label="mesh" /></g></svg>
